<?xml version="1.0" encoding="utf-8"?>
<svg xmlns="http://www.w3.org/2000/svg"
     xmlns:xlink="http://www.w3.org/1999/xlink">
  <symbol height="24" width="24" viewBox="0 0 24 24" id="chevron">
    <path d="M10 6L8.59 7.41 13.17 12l-4.58 4.59L10 18l6-6z"
          fill="currentColor"/>
    <path d="M0 0h24v24H0z"
          fill="none"/>
  </symbol>
  <symbol width="44" height="44" viewBox="0 0 44 44" id="facebook">
    <g fill="currentColor" fill-rule="evenodd">
      <path fill="currentColor" d="M19.294 34h4.586V22.006h3.44l.68-3.748h-4.12v-2.716c0-.875.594-1.794 1.444-1.794h2.341V10h-2.87v.017c-4.49.155-5.413 2.632-5.493 5.233h-.008v3.008H17v3.748h2.294V34z"/>
    </g>
  </symbol>
  <symbol width="44" height="44" viewBox="0 0 44 44" id="google-plus">
    <g fill="none" fill-rule="evenodd">
      <path fill="currentColor" d="M10.02 22.125c.064-3.864 3.591-7.248 7.428-7.119 1.839-.086 3.567.72 4.975 1.852-.6.687-1.223 1.35-1.888 1.969-1.693-1.178-4.1-1.515-5.793-.154-2.422 1.687-2.532 5.668-.203 7.484 2.266 2.07 6.547 1.042 7.173-2.127-1.419-.022-2.841 0-4.26-.047-.004-.852-.007-1.704-.004-2.557 2.372-.007 4.744-.01 7.12.008.142 2.005-.121 4.139-1.345 5.797-1.852 2.625-5.572 3.391-8.474 2.267-2.912-1.118-4.975-4.215-4.73-7.373zm19.723-2.535h2.116c.004.712.007 1.428.015 2.141.707.007 1.418.007 2.126.014v2.13c-.708.008-1.415.012-2.126.019-.008.716-.011 1.429-.015 2.14h-2.12c-.006-.711-.006-1.424-.013-2.137l-2.127-.021v-2.13c.708-.008 1.415-.011 2.127-.015.003-.716.01-1.429.017-2.141z"/>
    </g>
  </symbol>
  <symbol width="44" height="44" viewBox="0 0 44 44" id="instagram">
    <g fill="none" fill-rule="evenodd">
      <path fill="currentColor" d="M21.996 10c3.258 0 3.667.014 4.946.072 1.277.058 2.15.261 2.912.558a5.88 5.88 0 0 1 2.125 1.383 5.88 5.88 0 0 1 1.384 2.125c.296.763.499 1.635.557 2.912.059 1.28.072 1.688.072 4.946s-.013 3.667-.072 4.946c-.058 1.277-.26 2.15-.557 2.912a5.88 5.88 0 0 1-1.384 2.125 5.88 5.88 0 0 1-2.125 1.384c-.763.296-1.635.499-2.912.557-1.28.059-1.688.072-4.946.072s-3.666-.013-4.946-.072c-1.277-.058-2.149-.26-2.912-.557a5.88 5.88 0 0 1-2.125-1.384 5.88 5.88 0 0 1-1.383-2.125c-.297-.763-.5-1.635-.558-2.912-.058-1.28-.072-1.688-.072-4.946s.014-3.666.072-4.946c.058-1.277.261-2.149.558-2.912a5.88 5.88 0 0 1 1.383-2.125 5.88 5.88 0 0 1 2.125-1.383c.763-.297 1.635-.5 2.912-.558 1.28-.058 1.688-.072 4.946-.072zm0 2.161c-3.203 0-3.582.013-4.847.07-1.17.054-1.805.25-2.228.413-.56.218-.96.478-1.38.898-.419.42-.679.82-.897 1.38-.164.422-.36 1.057-.413 2.227-.057 1.265-.07 1.644-.07 4.847 0 3.203.013 3.583.07 4.848.054 1.17.25 1.805.413 2.227.218.56.478.96.898 1.38.42.42.82.68 1.38.897.422.164 1.057.36 2.227.413 1.265.058 1.644.07 4.847.07 3.204 0 3.583-.012 4.848-.07 1.17-.053 1.805-.249 2.227-.413.56-.218.96-.478 1.38-.897.42-.42.68-.82.897-1.38.164-.422.36-1.058.413-2.227.058-1.265.07-1.645.07-4.848s-.012-3.582-.07-4.847c-.053-1.17-.249-1.805-.413-2.228a3.716 3.716 0 0 0-.897-1.38c-.42-.419-.82-.679-1.38-.897-.422-.164-1.058-.36-2.227-.413-1.265-.057-1.645-.07-4.848-.07zm0 3.675a6.16 6.16 0 1 1 0 12.32 6.16 6.16 0 0 1 0-12.32zm0 10.159a3.999 3.999 0 1 0 0-7.997 3.999 3.999 0 0 0 0 7.997zm7.843-10.402a1.44 1.44 0 1 1-2.879 0 1.44 1.44 0 0 1 2.88 0z"/>
    </g>
  </symbol>
  <symbol width="44" height="44" viewBox="0 0 44 44" id="linkedin">
      <g fill="none" fill-rule="evenodd">
          <path fill="currentColor" d="M10.678 34h5.305V18.535h-5.305V34zm12.752-8.601c0-1.774.83-3.508 2.815-3.508 1.985 0 2.473 1.734 2.473 3.465v8.446H34v-8.791c0-6.108-3.572-7.161-5.77-7.161-2.196 0-3.407.75-4.8 2.57v-2.083h-5.297v15.465h5.297V25.4zm-10.472-8.942c1.634 0 2.957-1.22 2.957-2.727 0-1.508-1.323-2.73-2.957-2.73S10 12.222 10 13.73c0 1.507 1.324 2.727 2.958 2.727"/>
      </g>
  </symbol>
  <symbol width="44" height="44" viewBox="0 0 44 44" id="menu">
    <g style="fill:none;stroke-width:1;stroke:none">
      <g fill="currentColor">
        <path d="M12 29L32 29 32 26.7 12 26.7 12 29 12 29ZM12 23.2L32 23.2 32 20.8 12 20.8 12 23.2 12 23.2ZM12 15L12 17.3 32 17.3 32 15 12 15 12 15Z"/>
      </g>
    </g>
  </symbol>
  <symbol width="44" height="44" viewBox="0 0 44 44" id="pinterest">
    <g fill="none" fill-rule="evenodd">
        <path fill="currentColor" d="M22 10c-6.627 0-12 5.373-12 12 0 4.94 2.985 9.182 7.249 11.024-.03-.837-.001-1.834.21-2.739.234-.976 1.552-6.562 1.552-6.562s-.385-.77-.385-1.907c0-1.783 1.035-3.117 2.322-3.117 1.096 0 1.626.824 1.626 1.81 0 1.1-.703 2.747-1.065 4.272-.3 1.277.643 2.32 1.902 2.32 2.28 0 3.816-2.93 3.816-6.404 0-2.638-1.775-4.615-5.01-4.615-3.651 0-5.93 2.725-5.93 5.769 0 1.048.31 1.79.796 2.362.223.263.253.369.172.672-.059.22-.189.754-.244.967-.08.305-.328.411-.604.3-1.681-.686-2.466-2.53-2.466-4.6 0-3.422 2.885-7.525 8.607-7.525 4.6 0 7.625 3.329 7.625 6.899 0 4.727-2.627 8.255-6.498 8.255-1.3 0-2.525-.704-2.941-1.5 0 0-.702 2.772-.848 3.31-.253.914-.74 1.828-1.191 2.548 1.048.3 2.157.461 3.305.461 6.627 0 12-5.373 12-12s-5.373-12-12-12"/>
    </g>
  </symbol>
  <symbol width="30" height="44" viewBox="0 0 30 44" id="place">
    <path d="M10 19.9c0 3.7 5 9.1 5 9.1s5-5.4 5-9.1c0-2.7-2.2-4.9-5-4.9s-5 2.2-5 4.9zm3 .1c0-1.1.9-2 2-2s2 .9 2 2-.9 2-2 2-2-.9-2-2z"
          fill="currentColor" />
  </symbol>
  <symbol width="20" height="20" viewBox="0 0 20 20" id="search">
    <path d="M15.052 13.835l4.73 4.73a.833.833 0 0 1 0 1.178l-.017.017a.833.833 0 0 1-1.178 0l-4.713-4.712a8.376 8.376 0 0 1-5.42 1.988C3.796 17.036 0 13.212 0 8.518 0 3.825 3.796 0 8.454 0c4.658 0 8.453 3.825 8.453 8.518a8.516 8.516 0 0 1-1.855 5.317zM8.454 1.704c-3.74 0-6.763 3.06-6.763 6.814s3.038 6.815 6.763 6.815 6.763-3.061 6.763-6.815c0-3.753-3.024-6.814-6.763-6.814z"
          fill-rule="nonzero"
          fill="currentColor" />
  </symbol>
  <symbol width="18" height="18" viewBox="0 0 18 18" id="arrow">
      <path fill="currentColor" d="M1.155 10.185h12.903L8.421 15.97c-.45.462-.45 1.221 0 1.683a1.13 1.13 0 0 0 1.629 0l7.612-7.811c.45-.463.45-1.21 0-1.672l-7.6-7.823a1.13 1.13 0 0 0-1.63 0c-.45.462-.45 1.209 0 1.671l5.626 5.797H1.155C.52 7.815 0 8.348 0 9s.52 1.185 1.155 1.185z"/>
  </symbol>
  <symbol width="18" height="18" viewBox="0 0 18 18" id="altfilters">
      <path fill="currentColor" d="M8 15h2c.55 0 1-.45 1-1s-.45-1-1-1H8c-.55 0-1 .45-1 1s.45 1 1 1zM0 4c0 .55.45 1 1 1h16c.55 0 1-.45 1-1s-.45-1-1-1H1c-.55 0-1 .45-1 1zm4 6h10c.55 0 1-.45 1-1s-.45-1-1-1H4c-.55 0-1 .45-1 1s.45 1 1 1z"/>
  </symbol>
  <symbol width="44" height="44" viewBox="0 0 44 44" id="twitter">
    <g fill="none" fill-rule="evenodd">
      <path fill="currentColor" d="M33.317 12.444c-.698.458-2.299 1.124-3.088 1.124v.001A4.881 4.881 0 0 0 26.65 12c-2.734 0-4.951 2.274-4.951 5.077 0 .39.044.77.125 1.134-3.71-.1-7.766-2.007-10.207-5.27-1.502 2.665-.203 5.63 1.501 6.71-.583.045-1.657-.07-2.162-.575-.034 1.77.795 4.113 3.82 4.963-.583.322-1.614.23-2.062.161.157 1.494 2.196 3.446 4.426 3.446-.795.943-3.785 2.653-7.14 2.109C12.279 31.176 14.934 32 17.745 32c7.988 0 14.192-6.64 13.858-14.831l-.002-.028.002-.064c0-.025-.002-.05-.003-.074a8.668 8.668 0 0 0 2.4-2.6c-.404.228-1.617.686-2.746.8.725-.402 1.798-1.715 2.063-2.76"/>
    </g>
  </symbol>
  <symbol width="44" height="44" viewBox="0 0 44 44" id="youtube">
    <g fill="none" fill-rule="evenodd">
      <path fill="currentColor" d="M33.634 16.91c.154.579.366 3.748.366 4.958v.264c0 1.21-.212 4.38-.366 4.958-.457 1.72-1.315 2.383-2.894 2.623-.91.125-5.28.287-8.748.287h.016c-3.468 0-7.838-.162-8.748-.287-1.58-.24-2.437-.903-2.894-2.623-.154-.579-.366-3.748-.366-4.958v-.264c0-1.21.212-4.38.366-4.958.457-1.72 1.315-2.383 2.894-2.623.91-.125 5.28-.287 8.748-.287h-.016c3.468 0 7.838.162 8.748.287 1.58.24 2.437.903 2.894 2.623zm-14.126 2.145v6l6-3.07-6-2.93z"/>
    </g>
  </symbol>
  <symbol width="18" height="18" viewBox="0 0 18 18" id="geolocate">
    <path d="M18 0L0 7.53v.98l6.84 2.65L9.48 18h.98z"
          fill-rule="evenodd"
          fill="currentColor" />
  </symbol>
  <symbol width="20" height="20" viewBox="0 0 20 20" id="filters">
    <path d="M13 2v2H0V2h13zm1 2V0h2v2h4v2h-4v2h-2V4zm0 12v2H0v-2h14zm1 2v-4h2v2h3v2h-3v2h-2v-2zM5 9v2H0V9h5zm1 2V7h2v2h12v2H8v2H6v-2z"
          fill-rule="evenodd"
          fill="currentColor"/>
  </symbol>
  <symbol width="14" height="14" viewBox="0 0 14 14" id="close">
    <path d="M14 1.41L12.59 0 7 5.59 1.41 0 0 1.41 5.59 7 0 12.59 1.41 14 7 8.41 12.59 14 14 12.59 8.41 7z"
          fill-rule="nonzero"
          fill="currentColor" />
  </symbol>
</svg>
