<svg xmlns="http://www.w3.org/2000/svg" width="28" height="28" viewBox="0 0 28 28">
    <g fill="none" fill-rule="evenodd">
        <path d="M-8-8h8v44h-8zM28-8h8v44h-8z"/>
        <g fill-rule="nonzero">
            <circle cx="14" cy="14" r="14" fill="#000"/>
            <path fill="#FFF" d="M7.233 16.45c.875 0 1.634-.7 1.634-1.75v-4.083h.991v6.533h-.991v-.642c-.467.467-1.05.7-1.75.7-1.4.117-2.45-.875-2.45-2.45v-4.083h.991v4.083c-.058.992.7 1.692 1.575 1.692zm3.325-5.775h.934v2.392c.408-.467 1.05-.7 1.691-.7a2.49 2.49 0 0 1 2.509 2.508 2.49 2.49 0 0 1-2.509 2.508c-.641 0-1.283-.233-1.691-.7v.584h-.934v-6.592zm2.567 5.833c.875 0 1.633-.758 1.633-1.691 0-.934-.758-1.692-1.633-1.692s-1.633.758-1.633 1.692c0 .933.758 1.691 1.633 1.691zm5.425-4.141c1.4 0 2.392 1.05 2.392 2.508v.292h-3.909a1.577 1.577 0 0 0 1.575 1.341 1.74 1.74 0 0 0 1.4-.7l.7.525c-.466.642-1.166 1.05-2.041 1.05-1.4 0-2.567-1.05-2.567-2.508 0-1.4 1.05-2.508 2.45-2.508zm-1.458 2.041h2.916c-.175-.758-.758-1.225-1.458-1.225s-1.283.467-1.458 1.225zm6.416-1.108c-.641 0-1.05.467-1.05 1.225v2.683h-.933v-4.783h.933v.583c.234-.408.642-.641 1.167-.641h.292v.875h-.409v.058z"/>
        </g>
    </g>
</svg>
