<svg version="1.1" xmlns="http://www.w3.org/2000/svg" xmlns:xlink="http://www.w3.org/1999/xlink" x="0px" y="0px"
  width="30" height="30" viewBox="0 0 30 30" xml:space="preserve">
<path d="M15,28.8c7.6,0,13.8-6.2,13.8-13.8S22.6,1.2,15,1.2C7.4,1.2,1.2,7.4,1.2,15S7.4,28.8,15,28.8z M15,0
  c8.3,0,15,6.7,15,15s-6.7,15-15,15S0,23.3,0,15S6.7,0,15,0z M15.4,16.6v-1.2H22v1.2h-2.7V22h-1.2v-5.4
  C18.1,16.6,15.4,16.6,15.4,16.6z M13.9,15.3l0.8,0.8l-2.6,2.6l2.6,2.6l-0.8,0.8l-2.6-2.6l-2.6,2.6l-0.8-0.8l2.6-2.6l-2.6-2.6
  l0.8-0.8l2.6,2.6C11.2,17.9,13.9,15.3,13.9,15.3z M18.7,9c-1.2,0-2.2,1-2.2,2.2c0,0.4,0.1,0.8,0.3,1.1l3-3C19.5,9.1,19.1,9,18.7,9z
  M18.7,14.6c-1.9,0-3.4-1.5-3.4-3.4c0-1.9,1.5-3.4,3.4-3.4c1.1,0,2.2,0.6,2.8,1.5l-3.8,3.8c1.1,0.5,2.4,0.1,2.9-1
  c0.1-0.3,0.2-0.6,0.2-1H22C22,13,20.5,14.5,18.7,14.6z M11.2,10.8l2.5-3l0.9,0.8L11.9,12v2.6h-1.2V12L7.8,8.6l0.9-0.8L11.2,10.8
  L11.2,10.8z"/>
</svg>