<svg xmlns="http://www.w3.org/2000/svg" xmlns:xlink="http://www.w3.org/1999/xlink" width="16" height="24" viewBox="0 0 16 24">
    <defs>
        <path id="a" d="M1.55 9.56a.68.68 0 0 1 .005-1.023l.026-.024a.828.828 0 0 1 1.103-.006l3.768 3.486c.303.28.3.736 0 1.014l-3.768 3.486a.818.818 0 0 1-1.103-.006l-.026-.024a.684.684 0 0 1-.004-1.022L4.73 12.5 1.55 9.56z"/>
    </defs>
    <g fill="none" fill-rule="evenodd">
        <path d="M0 0h8v24H0z"/>
        <g transform="translate(8)">
            <path d="M0 0h8v24H0z"/>
            <mask id="b" fill="#fff">
                <use xlink:href="#a"/>
            </mask>
            <use fill="#12131E" xlink:href="#a"/>
            <g fill="#e00f63" mask="url(#b)">
                <path d="M0 0h8v24H0z"/>
            </g>
        </g>
    </g>
</svg>
